<svg width="460" height="64" viewBox="0 0 460 64" fill="none" xmlns="http://www.w3.org/2000/svg">
<path fill-rule="evenodd" clip-rule="evenodd" d="M-5.04388 49.7733C-5.04388 49.7733 26.3615 7.34502 51.0083 3.07354C75.6551 -1.19793 89.2963 40.1612 89.2963 40.1612C89.2963 40.1612 100.836 38.3517 107.103 40.1612C113.371 41.9707 118.334 49.7733 118.334 49.7733C118.334 49.7733 126.317 24.8504 159.465 24.8504C192.613 24.8504 209.454 58.5209 209.454 58.5209C209.454 58.5209 220.488 49.7733 231.979 49.7733C243.469 49.7733 256.476 58.5209 256.476 58.5209C256.476 58.5209 264.593 24.8504 298.841 24.8504C333.089 24.8504 347.699 53.4242 347.699 53.4242C347.699 53.4242 361.536 44.6476 374.982 44.6476C388.428 44.6476 404.473 53.4242 404.473 53.4242C404.473 53.4242 408.975 25.703 429.003 9.36393C449.031 -6.97514 492.638 3.07354 492.638 3.07354L516.491 15.6954V147.47H-5.04388V49.7733Z" fill="url(#paint0_linear_0_11)"/>
<defs>
<linearGradient id="paint0_linear_0_11" x1="-5.04388" y1="-0.753082" x2="-5.04388" y2="147.47" gradientUnits="userSpaceOnUse">
<stop stop-color="#4297A8"/>
<stop offset="1" stop-color="#77C8D3"/>
</linearGradient>
</defs>
</svg>
